<svg width="43" height="43" viewBox="0 0 43 43" fill="none" xmlns="http://www.w3.org/2000/svg">
<path d="M2.7215 6.51417H36.8688C39.9616 6.51417 42.1949 9.36461 41.3465 12.233L37.6341 24.8019C37.0618 26.7321 35.2348 28.0608 33.1564 28.0608H12.6016C10.521 28.0608 8.69177 26.7299 8.12168 24.8019L2.7215 6.51417ZM2.7215 6.51417L1.12793 1.1275M31.4282 41.5275C32.3211 41.5275 33.1774 41.1728 33.8088 40.5414C34.4402 39.9101 34.7949 39.0537 34.7949 38.1608C34.7949 37.2679 34.4402 36.4116 33.8088 35.7802C33.1774 35.1489 32.3211 34.7942 31.4282 34.7942C30.5353 34.7942 29.679 35.1489 29.0476 35.7802C28.4162 36.4116 28.0615 37.2679 28.0615 38.1608C28.0615 39.0537 28.4162 39.9101 29.0476 40.5414C29.679 41.1728 30.5353 41.5275 31.4282 41.5275ZM13.4725 41.5275C14.3654 41.5275 15.2217 41.1728 15.8531 40.5414C16.4845 39.9101 16.8392 39.0537 16.8392 38.1608C16.8392 37.2679 16.4845 36.4116 15.8531 35.7802C15.2217 35.1489 14.3654 34.7942 13.4725 34.7942C12.5796 34.7942 11.7232 35.1489 11.0919 35.7802C10.4605 36.4116 10.1058 37.2679 10.1058 38.1608C10.1058 39.0537 10.4605 39.9101 11.0919 40.5414C11.7232 41.1728 12.5796 41.5275 13.4725 41.5275Z" stroke="white" stroke-width="2.25446" stroke-linecap="round" stroke-linejoin="round"/>
</svg>
